<mxfile host="app.diagrams.net" modified="2024-01-22T07:54:27.641Z" agent="Mozilla/5.0 (Windows NT 10.0; Win64; x64) AppleWebKit/537.36 (KHTML, like Gecko) Chrome/120.0.0.0 Safari/537.36 Edg/120.0.0.0" etag="3D0XMq2DtN1gvcTldnEp" version="22.1.21" type="github">
  <diagram id="C5RBs43oDa-KdzZeNtuy" name="Page-1">
    <mxGraphModel dx="1626" dy="1954" grid="1" gridSize="10" guides="1" tooltips="1" connect="1" arrows="1" fold="1" page="1" pageScale="1" pageWidth="827" pageHeight="1169" math="0" shadow="0">
      <root>
        <mxCell id="WIyWlLk6GJQsqaUBKTNV-0" />
        <mxCell id="WIyWlLk6GJQsqaUBKTNV-1" parent="WIyWlLk6GJQsqaUBKTNV-0" />
        <mxCell id="bGI024wiM-YOjVCkokLg-6" style="edgeStyle=orthogonalEdgeStyle;rounded=0;orthogonalLoop=1;jettySize=auto;html=1;exitX=0.5;exitY=1;exitDx=0;exitDy=0;" edge="1" parent="WIyWlLk6GJQsqaUBKTNV-1" source="bGI024wiM-YOjVCkokLg-0" target="bGI024wiM-YOjVCkokLg-1">
          <mxGeometry relative="1" as="geometry" />
        </mxCell>
        <mxCell id="bGI024wiM-YOjVCkokLg-0" value="框选" style="rounded=0;whiteSpace=wrap;html=1;" vertex="1" parent="WIyWlLk6GJQsqaUBKTNV-1">
          <mxGeometry x="240" y="80" width="120" height="60" as="geometry" />
        </mxCell>
        <mxCell id="bGI024wiM-YOjVCkokLg-3" style="edgeStyle=orthogonalEdgeStyle;rounded=0;orthogonalLoop=1;jettySize=auto;html=1;exitX=0.5;exitY=1;exitDx=0;exitDy=0;" edge="1" parent="WIyWlLk6GJQsqaUBKTNV-1" source="bGI024wiM-YOjVCkokLg-1" target="bGI024wiM-YOjVCkokLg-2">
          <mxGeometry relative="1" as="geometry" />
        </mxCell>
        <mxCell id="bGI024wiM-YOjVCkokLg-1" value="查找有NETCODE &amp;gt; 0" style="rounded=0;whiteSpace=wrap;html=1;" vertex="1" parent="WIyWlLk6GJQsqaUBKTNV-1">
          <mxGeometry x="240" y="200" width="120" height="60" as="geometry" />
        </mxCell>
        <mxCell id="bGI024wiM-YOjVCkokLg-5" style="edgeStyle=orthogonalEdgeStyle;rounded=0;orthogonalLoop=1;jettySize=auto;html=1;exitX=0.5;exitY=1;exitDx=0;exitDy=0;" edge="1" parent="WIyWlLk6GJQsqaUBKTNV-1" source="bGI024wiM-YOjVCkokLg-2" target="bGI024wiM-YOjVCkokLg-4">
          <mxGeometry relative="1" as="geometry" />
        </mxCell>
        <mxCell id="bGI024wiM-YOjVCkokLg-2" value="删除选择中的NETCODE &amp;gt; 0" style="rounded=0;whiteSpace=wrap;html=1;" vertex="1" parent="WIyWlLk6GJQsqaUBKTNV-1">
          <mxGeometry x="240" y="310" width="120" height="60" as="geometry" />
        </mxCell>
        <mxCell id="bGI024wiM-YOjVCkokLg-8" style="edgeStyle=orthogonalEdgeStyle;rounded=0;orthogonalLoop=1;jettySize=auto;html=1;exitX=0.5;exitY=1;exitDx=0;exitDy=0;" edge="1" parent="WIyWlLk6GJQsqaUBKTNV-1" source="bGI024wiM-YOjVCkokLg-4" target="bGI024wiM-YOjVCkokLg-7">
          <mxGeometry relative="1" as="geometry" />
        </mxCell>
        <mxCell id="bGI024wiM-YOjVCkokLg-4" value="无netcode的按FIND 中的其他选项进行" style="rounded=0;whiteSpace=wrap;html=1;" vertex="1" parent="WIyWlLk6GJQsqaUBKTNV-1">
          <mxGeometry x="240" y="430" width="120" height="60" as="geometry" />
        </mxCell>
        <mxCell id="bGI024wiM-YOjVCkokLg-10" style="edgeStyle=orthogonalEdgeStyle;rounded=0;orthogonalLoop=1;jettySize=auto;html=1;exitX=0.5;exitY=1;exitDx=0;exitDy=0;" edge="1" parent="WIyWlLk6GJQsqaUBKTNV-1" source="bGI024wiM-YOjVCkokLg-7" target="bGI024wiM-YOjVCkokLg-9">
          <mxGeometry relative="1" as="geometry" />
        </mxCell>
        <mxCell id="bGI024wiM-YOjVCkokLg-7" value="根据NETCODE 插入对应的内容" style="rounded=0;whiteSpace=wrap;html=1;" vertex="1" parent="WIyWlLk6GJQsqaUBKTNV-1">
          <mxGeometry x="240" y="555" width="120" height="60" as="geometry" />
        </mxCell>
        <mxCell id="bGI024wiM-YOjVCkokLg-9" value="结束" style="rounded=1;whiteSpace=wrap;html=1;" vertex="1" parent="WIyWlLk6GJQsqaUBKTNV-1">
          <mxGeometry x="240" y="680" width="120" height="60" as="geometry" />
        </mxCell>
        <mxCell id="bGI024wiM-YOjVCkokLg-12" value="" style="edgeStyle=orthogonalEdgeStyle;rounded=0;orthogonalLoop=1;jettySize=auto;html=1;" edge="1" parent="WIyWlLk6GJQsqaUBKTNV-1" source="bGI024wiM-YOjVCkokLg-11" target="bGI024wiM-YOjVCkokLg-0">
          <mxGeometry relative="1" as="geometry" />
        </mxCell>
        <mxCell id="bGI024wiM-YOjVCkokLg-11" value="开始" style="rounded=1;whiteSpace=wrap;html=1;" vertex="1" parent="WIyWlLk6GJQsqaUBKTNV-1">
          <mxGeometry x="240" y="-30" width="120" height="60" as="geometry" />
        </mxCell>
      </root>
    </mxGraphModel>
  </diagram>
</mxfile>
